<?xml version="1.0" encoding="UTF-8"?>
<svg version="1.1" xmlns="http://www.w3.org/2000/svg" width="512" height="512">
<path d="M0 0 C0.69641602 -0.00700928 1.39283203 -0.01401855 2.11035156 -0.02124023 C4.40730932 -0.03881383 6.70303021 -0.02720107 9 -0.01367188 C10.59896073 -0.01636701 12.19791987 -0.0202496 13.796875 -0.02526855 C17.14599226 -0.03116269 20.49468243 -0.0226038 23.84375 -0.00390625 C28.13478591 0.01888377 32.42482111 0.00576017 36.71582031 -0.01819611 C40.01700366 -0.03265667 43.31795011 -0.02804703 46.61914062 -0.01768494 C48.20117308 -0.01501834 49.78322711 -0.0182851 51.36523438 -0.02760315 C53.57740163 -0.03777366 55.787953 -0.02226378 58 0 C59.8871875 0.00477356 59.8871875 0.00477356 61.8125 0.00964355 C65 0.51757812 65 0.51757812 67.40911865 1.96502686 C69.82838534 5.8467131 69.52639578 9.38864684 69.45410156 13.87597656 C69.45468567 14.82265701 69.45526978 15.76933746 69.45587158 16.7447052 C69.4530858 19.87249471 69.42196987 22.99933018 69.390625 26.12695312 C69.38316439 28.29599487 69.37747061 30.46504335 69.37347412 32.63409424 C69.35820376 38.34216939 69.31890946 44.04983722 69.2746582 49.75775146 C69.23373597 55.58258555 69.21546959 61.40748547 69.1953125 67.23242188 C69.1524169 78.66098622 69.08414829 90.0892483 69 101.51757812 C69.89085297 100.96658951 70.78170593 100.41560089 71.69955444 99.84791565 C72.8808917 99.11869738 74.06225927 98.38952822 75.24365234 97.66040039 C76.12216103 97.11677731 76.12216103 97.11677731 77.01841736 96.56217194 C100.08816948 82.33442331 127.68601815 72.48943551 154.98828125 72.31445312 C155.7248848 72.30743881 156.46148834 72.3004245 157.22041321 72.29319763 C159.58450506 72.27579207 161.94834642 72.26934541 164.3125 72.26757812 C165.12023865 72.26690338 165.92797729 72.26622864 166.76019287 72.26553345 C178.7546645 72.2814673 190.28999547 72.7019204 202 75.51757812 C202.71607422 75.6785498 203.43214844 75.83952148 204.16992188 76.00537109 C227.67749418 81.38606212 250.28512156 92.3366262 269 107.51757812 C269.53753906 107.95360352 270.07507813 108.38962891 270.62890625 108.83886719 C299.12726109 132.09709529 319.71591127 162.96112646 328.8125 198.76757812 C329.00739014 199.53416748 329.20228027 200.30075684 329.40307617 201.09057617 C332.53251936 214.18348238 333.4119714 227.11681635 333.375 240.51757812 C333.3737915 241.33150024 333.37258301 242.14542236 333.37133789 242.98400879 C333.28042477 265.61361418 328.36650582 285.15256671 321 306.51757812 C330.05589378 299.53644963 339.0158242 292.51283574 347.109375 284.40429688 C350.33490487 281.28503446 352.63664131 279.08543008 357.25 278.83007812 C361.48143458 279.60584113 362.38219274 280.23431986 365 283.51757812 C365.95281999 286.5403174 366.50257306 289.53112056 367.09375 292.64257812 C368.13189043 295.93598915 369.36895591 297.33178765 372 299.51757812 C375.14341993 301.08928809 378.55771451 300.74933596 382 300.51757812 C385.11814109 299.85183306 385.11814109 299.85183306 386.1640625 297.44335938 C387.19322691 293.84128393 387.38195367 290.4226865 387.375 286.70507812 C387.37693359 285.64039307 387.37693359 285.64039307 387.37890625 284.55419922 C387.26258341 278.79754068 386.06110348 275.30055232 383 270.51757812 C383 269.85757812 383 269.19757813 383 268.51757812 C382.34 268.27007812 381.68 268.02257812 381 267.76757812 C368.52631579 262.5702097 368.52631579 262.5702097 365 255.51757812 C364.49497657 249.9871576 364.26192743 245.10727289 366.625 240.01757812 C371.05446472 235.35498368 374.12865463 233.27200418 380.625 233.01757812 C397.85189744 233.65640003 413.05054205 244.05281897 424.625 256.14257812 C438.14822386 271.84003055 444.32760316 291.9120099 443 312.51757812 C442.59419772 315.25970498 442.15723361 317.97243851 441.66015625 320.69726562 C441.53289154 321.40554504 441.40562683 322.11382446 441.27450562 322.84356689 C440.74168105 325.77565103 440.20250166 328.70468175 439.6081543 331.625 C439.17330189 333.78997949 438.78827 335.95926097 438.41015625 338.13476562 C438.16402588 339.4094873 437.91789551 340.68420898 437.66430664 341.99755859 C437.69842403 346.66369664 437.69842403 346.66369664 445 351.51757812 C445 394.08757812 445 436.65757812 445 480.51757812 C286.6 480.51757812 128.2 480.51757812 -35 480.51757812 C-36 344.51757812 -36 344.51757812 -35 336.51757812 C-31.5625177 336.48856419 -28.12506688 336.47077478 -24.6875 336.45507812 C-23.71103516 336.44669922 -22.73457031 336.43832031 -21.72851562 336.4296875 C-20.79072266 336.42646484 -19.85292969 336.42324219 -18.88671875 336.41992188 C-18.02264404 336.41468506 -17.15856934 336.40944824 -16.26831055 336.40405273 C-14 336.51757812 -14 336.51757812 -11 337.51757812 C-11.00151888 336.81447911 -11.00303776 336.1113801 -11.00460267 335.38697505 C-11.09405733 293.74305304 -11.16271704 252.09914215 -11.20426132 210.45514344 C-11.20926432 205.45821395 -11.21444159 200.46128466 -11.21972656 195.46435547 C-11.2207758 194.46952999 -11.22182505 193.47470451 -11.22290608 192.44973281 C-11.24032541 176.32812114 -11.27187149 160.20656634 -11.30861118 144.08498845 C-11.34597814 127.55063124 -11.36822685 111.01630388 -11.37635398 94.48190618 C-11.38185058 84.27402144 -11.39922945 74.06629746 -11.43166587 63.85846218 C-11.45276138 56.86463786 -11.45921134 49.87089701 -11.45400551 42.87704316 C-11.45143596 38.83805579 -11.45545649 34.79934991 -11.4768219 30.76041222 C-11.49622601 27.06537498 -11.49731053 23.37080966 -11.48359558 19.67575112 C-11.48109375 17.7003224 -11.49840086 15.72489957 -11.51632524 13.74955058 C-11.50836104 12.58161566 -11.50039685 11.41368074 -11.49219131 10.21035385 C-11.4937102 9.20029777 -11.49522908 8.19024169 -11.49679399 7.14957786 C-10.27274379 0.66459641 -5.85895217 0.01481997 0 0 Z " fill="#000000" transform="translate(51,15.482421875)"/>
<path d="M0 0 C11.51009514 1.71605055 20.78713502 10.41054723 28 19 C39.02115193 34.30260315 41.20085148 51.11201143 38.49169922 69.43847656 C37.2222487 76.67564291 35.68674095 83.84929502 34 91 C34.97839844 91.06316406 35.95679688 91.12632812 36.96484375 91.19140625 C38.27582031 91.31386719 39.58679688 91.43632812 40.9375 91.5625 C42.22527344 91.66691406 43.51304687 91.77132812 44.83984375 91.87890625 C49 93 49 93 58 100 C58 142.57 58 185.14 58 229 C-100.4 229 -258.8 229 -422 229 C-422 186.76 -422 144.52 -422 101 C-405.91962758 101 -405.91962758 101 -398.81787109 101.37963867 C-397.99903411 101.4204742 -397.18019712 101.46130972 -396.3365469 101.50338268 C-393.64866354 101.6382499 -390.96106386 101.7780812 -388.2734375 101.91796875 C-386.3243718 102.01680022 -384.37528987 102.11531204 -382.42619324 102.21353149 C-378.25490114 102.42435733 -374.08372648 102.63733377 -369.91262817 102.85195923 C-363.29215183 103.19241834 -356.67136919 103.52664849 -350.05053711 103.86010742 C-330.20049412 104.86131604 -310.3511386 105.87541498 -290.50272369 106.90840816 C-281.4459067 107.37961725 -272.38885452 107.84612425 -263.33164215 108.30967045 C-257.96188914 108.58485906 -252.59231937 108.86292715 -247.2230835 109.14804077 C-172.90584794 113.09077007 -100.14098494 108.33850063 -41.32421875 56.6484375 C-40.0246884 55.4558155 -38.73915891 54.24736653 -37.48046875 53.01171875 C-36.99191406 52.67785156 -36.50335938 52.34398437 -36 52 C-32.581264 53.13957867 -31.97467693 54.04429724 -29.8125 56.8125 C-25.38628116 62.05630067 -19.56335535 65.54366447 -12.6171875 66.23828125 C-4.14772133 66.46751182 1.23353437 64.46268907 8.25 59.875 C16.38446582 51.37078574 17.47474762 41.64149866 17.2734375 30.40625 C16.83882988 20.38875941 13.01844623 12.12410026 6 5 C4.05587169 3.46852037 2.14173841 2.25370053 0 1 C0 0.67 0 0.34 0 0 Z " fill="#B0DDEE" transform="translate(438,267)"/>
<path d="M0 0 C0.11214844 1.4540625 0.11214844 1.4540625 0.2265625 2.9375 C1.53092995 17.11067459 5.00977344 30.36880758 15 41 C15.78117187 41.91458984 15.78117187 41.91458984 16.578125 42.84765625 C21.40174867 48.17471637 27.43392687 52.12219402 34 55 C34.7683316 55.34139511 35.53666321 55.68279022 36.32827759 56.03453064 C46.82843017 59.95054212 57.23001527 59.39437536 68.28575897 59.18020248 C71.86003453 59.11605396 75.43308976 59.08621133 79.00787354 59.06668091 C89.16134846 59.00950856 99.31337626 58.92589047 109.46533203 58.73632812 C115.69892771 58.62238907 121.9298738 58.57685678 128.16446686 58.57529068 C130.52974216 58.56163985 132.89501824 58.52247204 135.2594223 58.45684433 C153.24046767 57.97083074 153.24046767 57.97083074 157.85847282 61.36659241 C161.30645375 65.1085254 163.15040741 69.30976995 165 74 C165.85633186 75.60974186 166.72700241 77.2122165 167.62890625 78.796875 C168.28187612 80.11042216 168.92690332 81.42795891 169.5625 82.75 C169.90345703 83.43320313 170.24441406 84.11640625 170.59570312 84.8203125 C173 89.7159834 173 89.7159834 173 92 C172.03692932 91.99920441 171.07385864 91.99840881 170.081604 91.99758911 C160.96108372 91.99397112 151.841124 92.02201829 142.72078323 92.0802784 C138.03296003 92.10922758 133.34563288 92.12740469 128.65771484 92.12011719 C124.12505218 92.11348148 119.59336607 92.1362475 115.06090546 92.17855453 C113.34038524 92.18961084 111.61976509 92.19045414 109.89923859 92.18042374 C99.43337661 92.12727974 90.85409987 92.64280791 82 99 C79.53614283 101.49292142 77.7075652 103.94435701 76 107 C75.071875 108.6396875 75.071875 108.6396875 74.125 110.3125 C71.42575384 119.16002907 72.70683157 126.91286876 77 135 C80.875982 141.29847075 86.91460922 144.94507784 94 147 C100.88063266 148.09378437 107.91379663 147.84006613 114.859375 147.8046875 C116.86006256 147.81595521 118.86073691 147.82984347 120.86138916 147.84622192 C126.08927553 147.88206883 131.31657481 147.88265772 136.54455566 147.87554932 C141.8943921 147.87463252 147.24401308 147.90755014 152.59375 147.9375 C163.06256157 147.99118256 173.53106587 148.00756578 184 148 C184.0139994 150.22849754 184.02395791 152.4570207 184.03222656 154.68554688 C184.03820862 155.92655151 184.04419067 157.16755615 184.050354 158.44616699 C183.98741338 162.88832523 183.5111911 167.13069602 182.75 171.5 C182.61360107 172.30767822 182.47720215 173.11535645 182.33666992 173.94750977 C179.01497989 192.78162298 171.90759574 218.65800699 158.1796875 232.88671875 C156.17008737 234.26560022 154.27394768 235.11796137 152 236 C150.95457031 236.46019531 149.90914062 236.92039062 148.83203125 237.39453125 C138.80320234 241.64039129 128.44206549 244.9316801 118 248 C117.14591553 248.25257568 116.29183105 248.50515137 115.41186523 248.76538086 C80.46572833 258.73246824 43.61659183 255.15668321 7.8125 253.5625 C7.05426689 253.52892773 6.29603378 253.49535545 5.51482391 253.46076584 C1.11663366 253.2652798 -3.28118015 253.063314 -7.67863274 252.85186386 C-9.04148293 252.78679943 -10.40440548 252.72323275 -11.76739693 252.66119766 C-13.64487475 252.57511142 -15.52203609 252.48220269 -17.39916992 252.38891602 C-18.46084885 252.33784195 -19.52252777 252.28676788 -20.61637878 252.23414612 C-23 252 -23 252 -24 251 C-24.45014185 247.12878012 -24.14616182 245.26622331 -22.25 241.8125 C-19.74512976 238.6814122 -17.82067509 236.30491131 -13.75256824 235.62361908 C-12.92726958 235.62290657 -12.10197092 235.62219406 -11.25166321 235.62145996 C-9.82410454 235.60915596 -9.82410454 235.60915596 -8.3677063 235.59660339 C-7.33024261 235.60275162 -6.29277893 235.60889984 -5.22387695 235.61523438 C-4.12584244 235.6098616 -3.02780792 235.60448883 -1.89649963 235.59895325 C0.48903836 235.58916656 2.87461199 235.58623377 5.26016808 235.58930969 C9.03948844 235.59378287 12.81833932 235.5797993 16.59761047 235.56091309 C24.62757449 235.52409072 32.65746906 235.51027253 40.6875 235.5 C49.9761501 235.48809873 59.26454839 235.46630114 68.55311012 235.41999817 C72.26944089 235.4064497 75.98548231 235.410596 79.701828 235.41540527 C81.99352381 235.40606021 84.28521644 235.39589027 86.5769043 235.38476562 C87.60424683 235.39091385 88.63158936 235.39706207 89.69006348 235.40339661 C99.07252015 235.32371056 106.05617321 232.8286006 114 228 C114.763125 227.67 115.52625 227.34 116.3125 227 C118.55722746 225.66979113 118.94462452 224.37459483 120 222 C120.639375 221.113125 121.27875 220.22625 121.9375 219.3125 C127.32158477 210.66533355 127.96773079 202.0859053 127 192 C125.40629356 185.47094458 122.43908524 180.93231693 118 176 C118 175.34 118 174.68 118 174 C117.2265625 173.62875 117.2265625 173.62875 116.4375 173.25 C114.51983885 172.26658403 112.65409515 171.18190098 110.8125 170.0625 C101.50681692 164.83024446 92.57848756 164.55562683 82.10717773 164.56762695 C80.50980374 164.55859833 78.91243666 164.54826842 77.31507874 164.53674316 C73.0016811 164.50927615 68.68841531 164.49990272 64.37494159 164.49388909 C59.85855607 164.4844785 55.34226798 164.458273 50.82594299 164.43388367 C42.28393082 164.39028868 33.74193764 164.36169877 25.19984823 164.33856028 C15.47062686 164.31147101 5.74150384 164.26756184 -3.98764718 164.22227156 C-23.99172566 164.12952553 -43.9957947 164.06001892 -64 164 C-64 153.44 -64 142.88 -64 132 C-54.5625 131.6875 -54.5625 131.6875 -51.64672852 131.61206055 C-44.42112039 131.30905831 -37.76086212 130.34073093 -32.125 125.5625 C-31.073125 124.2940625 -31.073125 124.2940625 -30 123 C-29.1646875 122.01 -29.1646875 122.01 -28.3125 121 C-24.53086437 115.2375076 -24.39882413 109.69747498 -25 103 C-26.22666743 97.3170798 -28.5356971 93.81099028 -33 90 C-33.639375 89.443125 -34.27875 88.88625 -34.9375 88.3125 C-40.82588682 84.56534475 -47.12022331 84.59466753 -53.875 84.375 C-54.84953125 84.33632812 -55.8240625 84.29765625 -56.828125 84.2578125 C-59.2185672 84.16406967 -61.60901244 84.0783617 -64 84 C-64.30540812 76.47542952 -64.51485594 68.95246553 -64.65917969 61.4230957 C-64.71936179 58.86487114 -64.80113429 56.30705658 -64.90527344 53.75024414 C-65.79497605 31.33758863 -65.79497605 31.33758863 -61.55444336 26.43383789 C-58.45732247 24.07648061 -55.57564599 22.51324362 -52 21 C-50.58318969 20.14034693 -49.17608405 19.26421116 -47.78515625 18.36328125 C-46.55011449 17.66918552 -45.30923785 16.98536089 -44.0625 16.3125 C-43.39065674 15.94294189 -42.71881348 15.57338379 -42.02661133 15.19262695 C-14.06384939 0 -14.06384939 0 0 0 Z " fill="#22A1DF" transform="translate(184,108)"/>
<path d="M0 0 C18.22806619 0 29.42797472 7.08378546 43.14233398 18.17993164 C53.93993897 26.8949079 63.51271033 27.91651825 77 27 C86.93531045 25.59458494 94.52812507 18.04432938 102 11.875 C115.96302325 0.59802733 129.56486433 -1.27351729 147 0 C160.18555485 2.18234654 169.81808583 9.97359993 179.92260742 18.14038086 C184.37375412 21.67371435 188.63458502 24.03268117 194 26 C194.66 26.33 195.32 26.66 196 27 C208.9257819 28.26228339 219.55056676 27.46894406 229.9375 19.25 C230.76121094 18.55777344 231.58492187 17.86554688 232.43359375 17.15234375 C239.69856665 11.05949737 247.23600303 5.70067302 256 2 C256.86238281 1.63132812 257.72476562 1.26265625 258.61328125 0.8828125 C263.38944662 -0.36218562 267.96065667 -0.28947264 272.875 -0.25 C273.83019531 -0.25773437 274.78539062 -0.26546875 275.76953125 -0.2734375 C291.10088428 -0.23137617 303.21331851 6.08246366 314.43823242 16.07177734 C318.64984457 19.80286126 322.87738653 22.68882088 328 25 C329.07701172 25.54333984 329.07701172 25.54333984 330.17578125 26.09765625 C338.69836031 28.82063794 351.5150731 28.52090448 359.56640625 24.5859375 C364.0605124 21.65719417 368.18599136 18.27145397 372.34765625 14.89453125 C384.76107217 4.91928693 395.45748334 -0.15992908 411.5625 -0.375 C412.87456421 -0.39639038 412.87456421 -0.39639038 414.21313477 -0.41821289 C428.90691765 -0.30659361 440.03337482 6.35680737 451 15.5625 C460.1484034 23.20761442 467.89080579 27.4735133 480 28 C480 33.94 480 39.88 480 46 C321.6 46 163.2 46 0 46 C0 30.82 0 15.64 0 0 Z " fill="#020303" transform="translate(16,450)"/>
<path d="M0 0 C15.84 0 31.68 0 48 0 C48 106.92 48 213.84 48 324 C28.24253731 324 28.24253731 324 18.9375 323.5625 C17.50760742 323.50352539 17.50760742 323.50352539 16.04882812 323.44335938 C10.61357284 323.19987792 5.43448195 322.67931024 0 322 C0 310.78 0 299.56 0 288 C5.28 288 10.56 288 16 288 C16 282.72 16 277.44 16 272 C10.72 272 5.44 272 0 272 C0 261.44 0 250.88 0 240 C10.56 240 21.12 240 32 240 C32 234.72 32 229.44 32 224 C21.44 224 10.88 224 0 224 C0 213.44 0 202.88 0 192 C5.28 192 10.56 192 16 192 C16 186.72 16 181.44 16 176 C10.72 176 5.44 176 0 176 C0 165.44 0 154.88 0 144 C10.56 144 21.12 144 32 144 C32 138.72 32 133.44 32 128 C21.44 128 10.88 128 0 128 C0 117.44 0 106.88 0 96 C5.28 96 10.56 96 16 96 C16 90.72 16 85.44 16 80 C10.72 80 5.44 80 0 80 C0 69.44 0 58.88 0 48 C10.56 48 21.12 48 32 48 C32 42.72 32 37.44 32 32 C21.44 32 10.88 32 0 32 C0 21.44 0 10.88 0 0 Z " fill="#DDDDDD" transform="translate(56,32)"/>
<path d="M0 0 C17.62879875 -1.0524656 30.0100983 7.55477562 43.14233398 18.17993164 C53.93993897 26.8949079 63.51271033 27.91651825 77 27 C86.93531045 25.59458494 94.52812507 18.04432938 102 11.875 C115.96302325 0.59802733 129.56486433 -1.27351729 147 0 C160.18555485 2.18234654 169.81808583 9.97359993 179.92260742 18.14038086 C184.37375412 21.67371435 188.63458502 24.03268117 194 26 C194.66 26.33 195.32 26.66 196 27 C208.9257819 28.26228339 219.55056676 27.46894406 229.9375 19.25 C230.76121094 18.55777344 231.58492187 17.86554688 232.43359375 17.15234375 C239.69856665 11.05949737 247.23600303 5.70067302 256 2 C256.86238281 1.63132812 257.72476562 1.26265625 258.61328125 0.8828125 C263.38944662 -0.36218562 267.96065667 -0.28947264 272.875 -0.25 C273.83019531 -0.25773437 274.78539062 -0.26546875 275.76953125 -0.2734375 C291.10088428 -0.23137617 303.21331851 6.08246366 314.43823242 16.07177734 C318.64984457 19.80286126 322.87738653 22.68882088 328 25 C329.07701172 25.54333984 329.07701172 25.54333984 330.17578125 26.09765625 C338.69836031 28.82063794 351.5150731 28.52090448 359.56640625 24.5859375 C364.0605124 21.65719417 368.18599136 18.27145397 372.34765625 14.89453125 C384.76107217 4.91928693 395.45748334 -0.15992908 411.5625 -0.375 C412.87456421 -0.39639038 412.87456421 -0.39639038 414.21313477 -0.41821289 C428.90691765 -0.30659361 440.03337482 6.35680737 451 15.5625 C460.1484034 23.20761442 467.89080579 27.4735133 480 28 C480 33.28 480 38.56 480 44 C462.14046732 44.8404486 450.424561 36.86773537 437.03393555 25.90795898 C425.82981094 16.82737455 415.1666117 15.51874941 401 17 C392.18889158 19.38085322 385.79429491 25.50695469 379.0859375 31.37890625 C365.58213533 43.05034634 350.71153044 45.21933944 333.42675781 44.22753906 C328.44818431 43.76073519 324.36422835 42.37641201 320 40 C319.2265625 39.61070312 318.453125 39.22140625 317.65625 38.8203125 C312.87321384 36.19585435 308.71005163 33.00504012 304.51586914 29.54589844 C292.14357038 19.35858382 282.53207658 15.2992138 266.28369141 16.69238281 C256.36638316 18.02826141 249.17512671 25.12086202 241.79345703 31.30688477 C230.93842141 40.34926274 219.2061496 44.59322351 205.0625 44.4375 C204.09538086 44.42992676 203.12826172 44.42235352 202.13183594 44.41455078 C195.10150551 44.25202036 189.24546629 43.40951476 183 40 C182.18015625 39.57589844 181.3603125 39.15179688 180.515625 38.71484375 C174.72251225 35.48545325 169.80712365 31.43785315 164.7421875 27.18359375 C152.80219701 17.67582355 142.00585229 15.34087628 127 17 C118.57006564 19.25052546 112.2895367 25.05088514 105.72338867 30.52197266 C91.05205974 42.5488863 75.57329198 45.32261128 57 44 C45.16360237 42.11175241 36.0647084 34.22232545 26.91894531 27.00024414 C18.07594883 20.04459872 11.33883324 16.63880751 0 16 C0 10.72 0 5.44 0 0 Z " fill="#020303" transform="translate(16,394)"/>
<path d="M0 0 C20.85363175 -0.09034165 41.70710473 -0.16400608 62.56088257 -0.20724869 C72.24394748 -0.22786187 81.92688204 -0.25595869 91.60986328 -0.30175781 C100.05090517 -0.34166366 108.49185265 -0.36744186 116.93298626 -0.37635398 C121.40131508 -0.38156238 125.86937382 -0.39377804 130.33761597 -0.42292023 C134.54667957 -0.45014861 138.75536284 -0.45843007 142.96450615 -0.45243073 C144.50599677 -0.45352765 146.04750063 -0.46143742 147.58891487 -0.4768219 C164.18262191 -0.63426174 164.18262191 -0.63426174 170.50463867 5.44744492 C175.51759191 11.12688572 176.51993354 15.52012902 176.375 22.95703125 C175.70144165 28.42267663 173.30920965 31.97880994 169.21484375 35.5625 C164.93050328 38.76438502 161.6282734 40.12636388 156.35414124 40.11784363 C154.92252655 40.11952042 154.92252655 40.11952042 153.46199036 40.12123108 C151.89344551 40.11572487 151.89344551 40.11572487 150.29321289 40.11010742 C148.00692239 40.11065025 145.72063191 40.11123727 143.43434143 40.11186218 C142.21918917 40.11043402 141.0040369 40.10900585 139.75206184 40.10753441 C133.31578513 40.10401662 126.87959601 40.12982317 120.44335938 40.15039062 C112.25343456 40.17529405 104.06373536 40.19109368 95.8737793 40.17504883 C89.25653447 40.16219122 82.63982703 40.18087422 76.02264214 40.21749306 C73.5066405 40.22608437 70.99057835 40.22406529 68.47459602 40.210989 C50.15452447 39.52872326 50.15452447 39.52872326 34 47 C27.60630189 53.57164083 24.7926776 60.96347539 24 70 C21.49992418 70.02730665 19.0001551 70.04698485 16.5 70.0625 C15.80390625 70.07087891 15.1078125 70.07925781 14.390625 70.08789062 C13.69453125 70.09111328 12.9984375 70.09433594 12.28125 70.09765625 C11.65283203 70.10289307 11.02441406 70.10812988 10.37695312 70.11352539 C6.90207183 69.94756198 3.45197827 69.43149728 0 69 C0 46.23 0 23.46 0 0 Z " fill="#83C656" transform="translate(120,288)"/>
<path d="M0 0 C14.06901391 0 21.0891369 4.98878317 31.48950195 13.59448242 C42.43137054 22.57917725 53.58827745 27.59455758 67.8125 27.4375 C68.78300293 27.42920166 69.75350586 27.42090332 70.75341797 27.41235352 C78.10688187 27.23926562 84.34848091 26.30119707 91 23 C91.96550781 22.525625 92.93101563 22.05125 93.92578125 21.5625 C99.74174755 18.42444296 104.63336765 14.71688096 109.5625 10.375 C119.73155575 1.57571457 128.57251693 -1.24034272 142.0390625 -0.609375 C152.44216453 0.33817122 160.39765636 5.93588253 167.79296875 13.015625 C181.44381329 25.28930469 195.57267189 27.92459312 213.24316406 27.21777344 C224.56029385 26.32378834 233.39191856 21.05520312 242 14 C243.64332842 12.67997419 245.29274958 11.36878109 246.95068359 10.06713867 C248.53196615 8.82318717 250.0985196 7.56057801 251.6640625 6.296875 C258.52233351 1.28826209 265.23833269 -0.76187647 273.6875 -0.6875 C274.55890625 -0.68024902 275.4303125 -0.67299805 276.328125 -0.66552734 C289.09497306 -0.18841575 297.89315438 6.51394203 307.19921875 14.63671875 C311.19992464 18.01248871 315.34607791 20.62479255 320 23 C320.75667969 23.4125 321.51335937 23.825 322.29296875 24.25 C333.64344706 29.44703935 349.53105073 28.83769607 361.25 24.9375 C368.28704416 22.17651765 373.79879983 18.40031505 379.63671875 13.67529297 C380.83501482 12.70746389 382.03552547 11.74237144 383.23803711 10.77978516 C384.41457413 9.83358049 385.58280438 8.87690689 386.74047852 7.90771484 C394.31375189 1.75297681 401.32664649 -0.66841925 411.0625 -0.4375 C412.3319043 -0.44813477 412.3319043 -0.44813477 413.62695312 -0.45898438 C421.78486623 -0.37721655 427.85601666 1.74310187 434.375 6.6875 C435.31085938 7.39003906 436.24671875 8.09257812 437.2109375 8.81640625 C439.84426477 10.87807284 442.42290711 12.99378509 445 15.125 C455.88056835 23.91248604 466.20796045 27.13941297 480 28 C480 28.66 480 29.32 480 30 C321.6 30 163.2 30 0 30 C0 20.1 0 10.2 0 0 Z " fill="#B0DCED" transform="translate(16,466)"/>
<path d="M0 0 C1.31272723 26.69212025 -8.85057642 57.13846527 -24 79 C-26.45236165 81.54182549 -28.72803962 82.73084352 -32 84 C-33.04542969 84.46019531 -34.09085938 84.92039062 -35.16796875 85.39453125 C-45.19679766 89.64039129 -55.55793451 92.9316801 -66 96 C-66.85408447 96.25257568 -67.70816895 96.50515137 -68.58813477 96.76538086 C-103.53427167 106.73246824 -140.38340817 103.15668321 -176.1875 101.5625 C-176.94573311 101.52892773 -177.70396622 101.49535545 -178.48517609 101.46076584 C-182.88336634 101.2652798 -187.28118015 101.063314 -191.67863274 100.85186386 C-193.04148293 100.78679943 -194.40440548 100.72323275 -195.76739693 100.66119766 C-197.64487475 100.57511142 -199.52203609 100.48220269 -201.39916992 100.38891602 C-202.46084885 100.33784195 -203.52252777 100.28676788 -204.61637878 100.23414612 C-207 100 -207 100 -208 99 C-208.45014185 95.12878012 -208.14616182 93.26622331 -206.25 89.8125 C-203.74512976 86.6814122 -201.82067509 84.30491131 -197.75256824 83.62361908 C-196.92726958 83.62290657 -196.10197092 83.62219406 -195.25166321 83.62145996 C-194.29995743 83.61325729 -193.34825165 83.60505463 -192.3677063 83.59660339 C-191.33024261 83.60275162 -190.29277893 83.60889984 -189.22387695 83.61523438 C-188.12584244 83.6098616 -187.02780792 83.60448883 -185.89649963 83.59895325 C-183.51096164 83.58916656 -181.12538801 83.58623377 -178.73983192 83.58930969 C-174.96051156 83.59378287 -171.18166068 83.5797993 -167.40238953 83.56091309 C-159.37242551 83.52409072 -151.34253094 83.51027253 -143.3125 83.5 C-134.0238499 83.48809873 -124.73545161 83.46630114 -115.44688988 83.41999817 C-111.73055911 83.4064497 -108.01451769 83.410596 -104.298172 83.41540527 C-102.00647619 83.40606021 -99.71478356 83.39589027 -97.4230957 83.38476562 C-96.39575317 83.39091385 -95.36841064 83.39706207 -94.30993652 83.40339661 C-84.92747985 83.32371056 -77.94382679 80.8286006 -70 76 C-68.8553125 75.505 -68.8553125 75.505 -67.6875 75 C-65.44277254 73.66979113 -65.05537548 72.37459483 -64 70 C-63.360625 69.113125 -62.72125 68.22625 -62.0625 67.3125 C-59.60404426 63.36407109 -58.3019374 59.43842296 -57 55 C-56.01 55 -55.02 55 -54 55 C-47.10217013 47.53860815 -43.1596834 37.53734301 -38.89453125 28.45703125 C-31.5950999 13.34561767 -23.32698605 7.83312735 -7.91796875 2.015625 C-2.12692308 0 -2.12692308 0 0 0 Z " fill="#1975A2" transform="translate(368,260)"/>
<path d="M0 0 C31.79838079 -0.83934812 60.88179335 3.05756782 89 19 C89.66338379 19.37495605 90.32676758 19.74991211 91.01025391 20.13623047 C102.51290607 26.74495692 113.5683171 34.4993197 122.19287109 44.68481445 C122.98641495 45.61932182 122.98641495 45.61932182 123.79598999 46.57270813 C124.19331329 47.04371445 124.5906366 47.51472076 125 48 C112.95127494 48.11622819 100.90268488 48.2048846 88.85351181 48.25906086 C83.25760745 48.28507253 77.66208873 48.32031599 72.06640625 48.37719727 C66.65877786 48.43181831 61.25151869 48.46148383 55.84363556 48.47438622 C53.78809046 48.48357228 51.73256388 48.50150975 49.67717743 48.52865028 C35.18831393 48.71223275 23.60379018 47.71058398 12.03125 38.00390625 C3.85799917 29.94067995 -1.17338387 20.04663917 -1.3125 8.5 C-1.23262216 5.30488651 -1.01515552 3.04546656 0 0 Z " fill="#83C657" transform="translate(201,104)"/>
<path d="M0 0 C15.84 0 31.68 0 48 0 C48 106.92 48 213.84 48 324 C45.36 324 42.72 324 40 324 C40 222.36 40 120.72 40 16 C29.44 16 18.88 16 8 16 C8 21.28 8 26.56 8 32 C5.36 32 2.72 32 0 32 C0 21.44 0 10.88 0 0 Z " fill="#C7C7C7" transform="translate(56,32)"/>
<path d="M0 0 C4.83652855 4.35287569 7.72210288 8.84207821 8.30078125 15.41796875 C8.33712684 27.10913241 7.32536591 35.13358412 -0.671875 44.08984375 C-7.82735054 49.96069533 -16.05445934 49.84810915 -24.80859375 49.24560547 C-38.00127614 47.76701384 -54.07610621 39.8566071 -64 31 C-65.57898053 27.84203893 -65.81928171 24.39329364 -65 21 C-61.17549801 16.29525549 -56.31829311 13.52096797 -51.125 10.5625 C-50.28799561 10.08240479 -49.45099121 9.60230957 -48.58862305 9.10766602 C-35.14722322 1.55478212 -14.9850958 -9.16470452 0 0 Z " fill="#000000" transform="translate(489,175)"/>
<path d="M0 0 C0.81013046 -0.00043808 1.62026093 -0.00087616 2.4549408 -0.00132751 C5.12808476 0.00075963 7.80059864 0.02408693 10.47363281 0.04760742 C12.3287929 0.05320364 14.18395743 0.05747362 16.03912354 0.06047058 C20.91856151 0.07191728 25.79773099 0.101383 30.67706299 0.13458252 C35.65739307 0.16528714 40.63776659 0.17897676 45.61816406 0.1940918 C55.38781318 0.22625283 65.15726316 0.27744712 74.92675781 0.34057617 C76.94890281 8.3401309 78.44762965 16.0962675 78.92675781 24.34057617 C67.687102 24.45648956 56.44758866 24.54530169 45.20745659 24.59963703 C39.98802433 24.62571705 34.76900138 24.66108634 29.54980469 24.71777344 C24.5117809 24.77214957 19.47415049 24.80200871 14.43585587 24.81496239 C12.51490207 24.82419217 10.59396951 24.84221611 8.67318344 24.86922646 C5.97973063 24.90559156 3.28789758 24.91051846 0.59423828 24.90820312 C-0.19770432 24.9261795 -0.98964691 24.94415588 -1.80558777 24.962677 C-7.56610083 24.90919198 -10.03181043 23.44776621 -14.07324219 19.34057617 C-16.38529791 16.08267947 -16.54573576 13.27802259 -16.07324219 9.34057617 C-11.9322399 1.79803629 -8.43271954 -0.1194043 0 0 Z " fill="#83C656" transform="translate(288.0732421875,215.659423828125)"/>
<path d="M0 0 C5.43569744 3.10139945 9.62615689 6.77660674 13.19921875 11.90625 C14.12734375 13.2365625 14.12734375 13.2365625 15.07421875 14.59375 C16.97326834 20.18539601 17.30551271 26.33054986 15.54296875 32.02734375 C10.21030013 42.34789638 -1.19480022 46.69971613 -11.58984375 50.171875 C-29.05636235 55.22329179 -29.05636235 55.22329179 -36.48828125 51.59375 C-40.90093202 42.55832223 -36.575826 31.05781439 -33.58789062 22.08056641 C-30.3601903 13.16434461 -25.90597683 5.19224711 -17.80078125 -0.09375 C-12.02142545 -2.02020193 -5.71559732 -2.23203243 0 0 Z " fill="#000000" transform="translate(431.80078125,97.09375)"/>
<path d="M0 0 C31.79838079 -0.83934812 60.88179335 3.05756782 89 19 C89.66338379 19.37495605 90.32676758 19.74991211 91.01025391 20.13623047 C103.95986763 27.57629329 115.5004395 36.41854838 125 48 C113.60320942 49.45490944 107.86249713 47.43301057 98.81640625 40.734375 C74.3589054 22.65133493 42.45351193 17.15588862 12.88061523 16.44775391 C10.78616957 16.39623758 8.69193801 16.33899323 6.59765625 16.28125 C5.35508057 16.25095703 4.11250488 16.22066406 2.83227539 16.18945312 C0 16 0 16 -1 15 C-1.09927286 13.0437407 -1.12969729 11.08377091 -1.125 9.125 C-1.12757813 8.05507812 -1.13015625 6.98515625 -1.1328125 5.8828125 C-1 3 -1 3 0 0 Z " fill="#9AD573" transform="translate(201,104)"/>
<path d="M0 0 C0.495 7.425 0.495 7.425 1 15 C-3.12295264 16.37431755 -7.12716942 17.5797658 -11.3125 18.6875 C-29.12486719 23.76871211 -45.61134168 31.9971969 -60.8046875 42.53125 C-63 44 -63 44 -64 44 C-64.74523999 39.14903968 -64.96435665 34.83204235 -64 30 C-60.71197365 25.92041175 -56.50992285 23.53924952 -52 21 C-50.69819431 20.22306813 -49.39743526 19.44438021 -48.09765625 18.6640625 C-16.42659317 0 -16.42659317 0 0 0 Z " fill="#34B0ED" transform="translate(184,108)"/>
<path d="M0 0 C10.56 0 21.12 0 32 0 C29.69 4.62 27.38 9.24 25 14 C23.98066676 18.55934176 23.98066676 18.55934176 24 22 C21.49992418 22.02730665 19.0001551 22.04698485 16.5 22.0625 C15.80390625 22.07087891 15.1078125 22.07925781 14.390625 22.08789062 C13.69453125 22.09111328 12.9984375 22.09433594 12.28125 22.09765625 C11.65283203 22.10289307 11.02441406 22.10812988 10.37695312 22.11352539 C6.90207183 21.94756198 3.45197827 21.43149728 0 21 C0 14.07 0 7.14 0 0 Z " fill="#22A1DE" transform="translate(120,336)"/>
<path d="M0 0 C0.87398438 0.01804688 1.74796875 0.03609375 2.6484375 0.0546875 C3.62683594 0.08949219 3.62683594 0.08949219 4.625 0.125 C6.41476714 3.70453429 6.05575316 7.47625515 5.05859375 11.29296875 C3.15177866 16.77381423 3.15177866 16.77381423 -0.375 19.125 C-9.98314012 20.88711064 -19.0259468 16.44069416 -27.375 12.125 C-27.375 11.465 -27.375 10.805 -27.375 10.125 C-24.83580994 8.82826398 -22.29385762 7.53752163 -19.75 6.25 C-19.03714844 5.88519531 -18.32429688 5.52039063 -17.58984375 5.14453125 C-11.78728655 2.21663542 -6.6321389 -0.179247 0 0 Z " fill="#ACD7E8" transform="translate(475.375,188.875)"/>
<path d="M0 0 C2.89640118 -0.08120751 5.79050912 -0.14059421 8.6875 -0.1875 C9.50412109 -0.21263672 10.32074219 -0.23777344 11.16210938 -0.26367188 C15.94015822 -0.32170486 19.13423093 -0.14903871 23 3 C24.40457737 5.80915474 24.24895157 7.88810534 24 11 C22.22015595 14.1359157 21.47691793 14.84102736 18 16 C16.59175107 16.08021999 15.18002769 16.10765977 13.76953125 16.09765625 C12.96708984 16.09443359 12.16464844 16.09121094 11.33789062 16.08789062 C10.50451172 16.07951172 9.67113281 16.07113281 8.8125 16.0625 C7.96751953 16.05798828 7.12253906 16.05347656 6.25195312 16.04882812 C4.16793845 16.03705403 2.08396023 16.0191189 0 16 C0 10.72 0 5.44 0 0 Z " fill="#83C556" transform="translate(120,208)"/>
<path d="M0 0 C2.64 0 5.28 0 8 0 C8 11.22 8 22.44 8 34 C5.36 34 2.72 34 0 34 C0 22.78 0 11.56 0 0 Z " fill="#C7C7C7" transform="translate(56,320)"/>
<path d="M0 0 C2.64 0 5.28 0 8 0 C8 10.56 8 21.12 8 32 C5.36 32 2.72 32 0 32 C0 21.44 0 10.88 0 0 Z " fill="#C7C7C7" transform="translate(56,272)"/>
<path d="M0 0 C2.64 0 5.28 0 8 0 C8 10.56 8 21.12 8 32 C5.36 32 2.72 32 0 32 C0 21.44 0 10.88 0 0 Z " fill="#C7C7C7" transform="translate(56,224)"/>
<path d="M0 0 C2.64 0 5.28 0 8 0 C8 10.56 8 21.12 8 32 C5.36 32 2.72 32 0 32 C0 21.44 0 10.88 0 0 Z " fill="#C7C7C7" transform="translate(56,176)"/>
<path d="M0 0 C2.64 0 5.28 0 8 0 C8 10.56 8 21.12 8 32 C5.36 32 2.72 32 0 32 C0 21.44 0 10.88 0 0 Z " fill="#C7C7C7" transform="translate(56,128)"/>
<path d="M0 0 C2.64 0 5.28 0 8 0 C8 10.56 8 21.12 8 32 C5.36 32 2.72 32 0 32 C0 21.44 0 10.88 0 0 Z " fill="#C7C7C7" transform="translate(56,80)"/>
<path d="M0 0 C0.88945312 0.00966797 1.77890625 0.01933594 2.6953125 0.02929688 C3.61570313 0.05443359 4.53609375 0.07957031 5.484375 0.10546875 C6.42023438 0.11900391 7.35609375 0.13253906 8.3203125 0.14648438 C10.62558827 0.18176921 12.9296856 0.23106594 15.234375 0.29296875 C11.15117447 3.61786061 6.92596987 6.63280413 2.5859375 9.609375 C0.10215367 11.31252881 0.10215367 11.31252881 -2.390625 13.73046875 C-5.91447932 16.04879396 -8.6062807 15.57495819 -12.765625 15.29296875 C-13.27099932 9.98653834 -12.07218251 7.42616563 -8.765625 3.29296875 C-5.79592707 0.62189307 -3.9788418 -0.07651619 0 0 Z " fill="#229EDA" transform="translate(172.765625,343.70703125)"/>
<path d="M0 0 C3.69539737 1.9766079 5.32303127 3.9603401 7.6875 7.4375 C7.67578125 9.43359375 7.67578125 9.43359375 6.6875 11.4375 C4.17578125 13.10546875 4.17578125 13.10546875 1 14.625 C-0.03511719 15.13417969 -1.07023437 15.64335937 -2.13671875 16.16796875 C-5.23507365 17.40654851 -8.0115252 18.02673402 -11.3125 18.4375 C-11.00668124 11.55657785 -8.04135912 6.1544246 -4.3125 0.4375 C-2.3125 -0.5625 -2.3125 -0.5625 0 0 Z " fill="#ABD7E7" transform="translate(424.3125,112.5625)"/>
<path d="M0 0 C3.29954383 -0.98284284 5.71635269 -1.10785669 9 0 C12.80615128 4.190611 15.37433553 9.01031945 18 14 C18.38671875 14.72638672 18.7734375 15.45277344 19.171875 16.20117188 C26 29.14046875 26 29.14046875 26 32 C25.01 32 24.02 32 23 32 C21.52734375 30.05078125 21.52734375 30.05078125 19.9375 27.3125 C14.82048013 18.91061356 8.81655304 11.1813898 2.375 3.75 C0 1 0 1 0 0 Z " fill="#33ACE9" transform="translate(331,168)"/>
</svg>
