<?xml version="1.0" encoding="UTF-8"?>
<svg version="1.1" xmlns="http://www.w3.org/2000/svg" width="512" height="512">
<path d="M0 0 C1.31258789 0.00491455 2.62517578 0.0098291 3.97753906 0.01489258 C14.02501902 0.13568534 23.48949243 0.95811356 33.25 3.3125 C33.97509766 3.47878906 34.70019531 3.64507812 35.44726562 3.81640625 C72.95257707 12.58388165 106.78052331 36.60804717 127.25 69.3125 C140.93589219 92.34811289 149.40952712 117.38082564 150.25 144.3125 C150.28996094 145.23160156 150.32992188 146.15070313 150.37109375 147.09765625 C150.98037325 173.15331468 144.31356453 198.55797386 132.0078125 221.4140625 C131.31860718 222.70824097 131.31860718 222.70824097 130.61547852 224.02856445 C129.49795358 226.12555858 128.37610607 228.22010544 127.25 230.3125 C128.36420319 230.30139694 129.47840637 230.29029388 130.62637329 230.27885437 C141.13174099 230.17745257 151.63700927 230.10252209 162.14275551 230.05343914 C167.54378293 230.02735653 172.94441497 229.99198233 178.34521484 229.93530273 C183.55830135 229.88093612 188.77100778 229.85106941 193.98435593 229.83811378 C195.97229368 229.82888232 197.96021086 229.81085515 199.9479866 229.78384972 C202.73482292 229.74749764 205.52009326 229.74255723 208.30712891 229.74487305 C209.53712112 229.71790848 209.53712112 229.71790848 210.79196167 229.69039917 C214.88627476 229.72716041 217.48118767 230.07883858 220.74252319 232.66828918 C223.67545303 235.76115321 224.33480255 237.07237261 224.25 241.3125 C223.09643939 245.09361533 222.24304287 247.53795744 219.09188646 249.99576145 C215.50922723 251.65572415 212.85249032 251.68970873 208.90481663 251.69281673 C208.17146755 251.69747665 207.43811848 251.70213657 206.68254671 251.7069377 C204.21775388 251.71891736 201.75350927 251.70948104 199.28871155 251.70018005 C197.50675525 251.70435167 195.72480161 251.70982824 193.94285291 251.71649987 C189.04020075 251.73099571 184.13771611 251.72669685 179.23505461 251.71933305 C173.95002691 251.71461391 168.66503612 251.72710009 163.38002014 251.73735046 C153.02403145 251.75456834 142.66810335 251.7553723 132.31210405 251.75013756 C123.89693576 251.74610026 115.4817854 251.74753418 107.06661797 251.75288582 C105.27179856 251.75400845 105.27179856 251.75400845 103.44072018 251.75515376 C101.01013823 251.7566852 98.57955629 251.75822355 96.14897435 251.75976873 C73.34278153 251.77350453 50.53662299 251.76804845 27.73043095 251.75658352 C6.8543542 251.74664952 -14.02163394 251.75959281 -34.89769702 251.78351771 C-56.32066862 251.80788489 -77.7435989 251.81752248 -99.16658407 251.81086498 C-111.19901802 251.80736753 -123.2313838 251.80963952 -135.2638073 251.82711601 C-145.50654688 251.84180821 -155.74917029 251.84251252 -165.99190753 251.8250451 C-171.2199713 251.81650821 -176.44782727 251.81445099 -181.67588043 251.82969666 C-186.45947476 251.84347378 -191.24268189 251.83887092 -196.02625341 251.81945742 C-197.75903792 251.81567558 -199.49185294 251.81868177 -201.22461044 251.82906907 C-203.57653522 251.84216823 -205.92710956 251.83072032 -208.27897549 251.81307125 C-210.23996265 251.81291025 -210.23996265 251.81291025 -212.24056572 251.81274599 C-216.35813024 251.22581517 -218.53246081 249.89937068 -221.75 247.3125 C-223.67827831 243.84848574 -223.97447118 240.40991467 -223.1875 236.5625 C-221.31968363 233.63896133 -219.69336995 232.1940903 -216.75 230.3125 C-213.80610598 229.72766003 -210.91485819 229.74831341 -207.9206543 229.76660156 C-207.04210281 229.75626389 -206.16355133 229.74592621 -205.25837708 229.73527527 C-202.36347047 229.7058508 -199.46926314 229.70434817 -196.57421875 229.703125 C-194.56352912 229.68814312 -192.5528518 229.67141596 -190.54219055 229.65301514 C-185.25682001 229.60933038 -179.97161548 229.58933995 -174.68609619 229.57427979 C-169.28997985 229.55471284 -163.8940429 229.51274232 -158.49804688 229.47265625 C-147.9154199 229.39734187 -137.33283305 229.34705775 -126.75 229.3125 C-127.16100952 228.6322728 -127.57201904 227.95204559 -127.9954834 227.25120544 C-128.53515747 226.35547318 -129.07483154 225.45974091 -129.63085938 224.53686523 C-130.1656189 223.65038803 -130.70037842 222.76391083 -131.25134277 221.85057068 C-143.10786807 201.77079614 -148.76839663 178.47220442 -149.75 155.3125 C-149.79125 154.47332031 -149.8325 153.63414062 -149.875 152.76953125 C-150.71540887 118.89054862 -139.44689158 85.01631859 -118.75 58.3125 C-117.61884766 56.84490234 -117.61884766 56.84490234 -116.46484375 55.34765625 C-92.19807497 24.8323015 -56.92766852 5.93589448 -18.46411133 0.70507812 C-12.30686142 0.05426252 -6.18713317 -0.02767126 0 0 Z " fill="#F9AE00" transform="translate(255.75,107.6875)"/>
<path d="M0 0 C0.73672582 -0.00611336 1.47345164 -0.01222672 2.23250249 -0.01852533 C4.70892402 -0.0341648 7.18437171 -0.02124383 9.66079807 -0.00850582 C11.45100638 -0.01382932 13.24121022 -0.02089387 15.03140551 -0.02955288 C19.95690371 -0.04823324 24.88210235 -0.04185668 29.80761325 -0.03139985 C35.11719176 -0.02442311 40.42670777 -0.04039415 45.73626804 -0.05339718 C56.14039837 -0.07506808 66.54441945 -0.07490236 76.94856494 -0.06677163 C85.40283003 -0.0604783 93.85706319 -0.06160254 102.31132793 -0.06804371 C103.51342493 -0.06894536 104.71552192 -0.06984702 105.95404609 -0.070776 C108.39590204 -0.07262715 110.83775798 -0.07448971 113.27961392 -0.07636356 C136.19168704 -0.09295282 159.10369863 -0.08421326 182.01576806 -0.06737798 C202.98886251 -0.05268026 223.96181372 -0.06730849 244.93488973 -0.09614814 C266.45730883 -0.12552335 287.97966177 -0.13651988 309.50210005 -0.12696594 C311.93540671 -0.12594336 314.36871339 -0.12494875 316.80202007 -0.12398243 C317.99932472 -0.12350604 319.19662936 -0.12302965 320.43021597 -0.12253882 C328.8758352 -0.1203722 337.32139197 -0.13019197 345.76699734 -0.14475346 C356.05733788 -0.16224762 366.34749573 -0.16220136 376.637829 -0.1394018 C381.89023511 -0.12823308 387.14231902 -0.12515661 392.39471149 -0.14370251 C397.20058893 -0.16045372 402.00586182 -0.15422914 406.8116997 -0.12948572 C408.552558 -0.12458436 410.29346457 -0.12816704 412.03428268 -0.14097316 C414.39736214 -0.15710574 416.75833865 -0.14255851 419.12132263 -0.12025452 C420.43472293 -0.11998483 421.74812323 -0.11971514 423.10132354 -0.11943728 C427.74125227 0.70466948 429.34331523 2.17156138 432.62358189 5.50615788 C434.06273675 9.40034163 433.7143967 11.2084871 432.49858189 15.19365788 C430.41809158 18.86919076 429.38935357 19.76135322 425.62358189 21.50615788 C422.23949677 21.88335603 422.23949677 21.88335603 418.27839851 21.88647461 C417.54504944 21.89113453 416.81170036 21.89579445 416.05612859 21.90059558 C413.59133577 21.91257523 411.12709116 21.90313891 408.66229343 21.89383793 C406.88033714 21.89800955 405.09838349 21.90348612 403.3164348 21.91015774 C398.41378264 21.92465359 393.51129799 21.92035472 388.6086365 21.91299093 C383.3236088 21.90827179 378.038618 21.92075796 372.75360203 21.93100834 C362.39761333 21.94822622 352.04168523 21.94903017 341.68568594 21.94379544 C333.27051764 21.93975813 324.85536729 21.94119205 316.44019985 21.94654369 C314.64538045 21.94766633 314.64538045 21.94766633 312.81430207 21.94881164 C310.38372012 21.95034308 307.95313818 21.95188142 305.52255624 21.95342661 C282.71636342 21.96716241 259.91020488 21.96170632 237.10401284 21.95024139 C216.22793609 21.94030739 195.35194795 21.95325068 174.47588486 21.97717559 C153.05291327 22.00154277 131.62998299 22.01118035 110.20699781 22.00452286 C98.17456386 22.0010254 86.14219809 22.0032974 74.10977459 22.02077389 C63.867035 22.03546609 53.62441159 22.03617039 43.38167436 22.01870298 C38.15361058 22.01016609 32.92575461 22.00810887 27.69770145 22.02335453 C22.91410713 22.03713166 18.1309 22.03252879 13.34732848 22.01311529 C11.61454396 22.00933346 9.88172895 22.01233964 8.14897145 22.02272695 C5.79704667 22.03582611 3.44647232 22.0243782 1.0946064 22.00672913 C-0.86638076 22.00656812 -0.86638076 22.00656812 -2.86698383 22.00640386 C-6.98454836 21.41947305 -9.15887892 20.09302856 -12.37641811 17.50615788 C-14.30469643 14.04214362 -14.6008893 10.60357254 -13.81391811 6.75615788 C-10.20377406 1.10549761 -6.51408729 0.00591014 0 0 Z " fill="#80CCF4" transform="translate(46.376418113708496,337.49384212493896)"/>
<path d="M0 0 C6.25549998 3.39746431 10.94968053 8.67966061 15.921875 13.69140625 C16.87221319 14.64293847 17.82292346 15.5940992 18.77398682 16.54490662 C20.75722843 18.52970537 22.73708639 20.51779657 24.71435547 22.50854492 C27.24676804 25.05800425 29.78577157 27.60077323 32.32709885 30.14134312 C34.28678508 32.10130132 36.2438542 34.06385499 38.20005035 36.02729607 C39.58945852 37.42142214 40.98035713 38.8140623 42.37127686 40.2066803 C43.21265198 41.05443527 44.0540271 41.90219025 44.92089844 42.77563477 C45.66225037 43.52079849 46.40360229 44.26596222 47.16741943 45.03370667 C49.80851049 47.86750281 50.95018017 49.46194583 51.3125 53.375 C50.97991769 57.23295483 50.39841663 59.00197922 48 62 C44.5656947 64.57572898 41.16905812 64.36137713 37 64 C29.21474893 58.80609331 22.6878425 50.69632607 16.0859375 44.08984375 C15.30500732 43.30863159 14.52407715 42.52741943 13.71948242 41.72253418 C11.81284427 39.81516663 9.90635321 37.90765233 8 36 C7.99120064 37.2800013 7.99120064 37.2800013 7.98222351 38.58586121 C7.92428024 46.63421881 7.85219416 54.68229939 7.76428509 62.73038769 C7.71958889 66.86784601 7.68033125 71.00520603 7.65356445 75.14282227 C7.62752376 79.13710423 7.58711632 83.13100779 7.53681374 87.12505531 C7.52015012 88.64759928 7.50863267 90.1702087 7.50238609 91.69283104 C7.49273912 93.82841886 7.46467507 95.96303975 7.43237305 98.09838867 C7.42126999 99.3130632 7.41016693 100.52773773 7.39872742 101.77922058 C6.96475326 105.2847107 6.07816163 107.17543083 4 110 C0.57840405 112.56619697 -2.84844133 112.50984054 -7 112 C-9.63016161 109.8272578 -11.47336894 108.05326212 -13 105 C-13.12086168 102.81525817 -13.1774762 100.62687 -13.20532227 98.43896484 C-13.21522186 97.76567642 -13.22512146 97.092388 -13.23532104 96.3986969 C-13.26695115 94.16947974 -13.29169934 91.94024126 -13.31640625 89.7109375 C-13.33697448 88.16679322 -13.35797092 86.62265459 -13.37937927 85.07852173 C-13.43461349 81.01135833 -13.48401678 76.94414401 -13.53222656 72.87689209 C-13.58243175 68.72777771 -13.63812293 64.57873741 -13.69335938 60.4296875 C-13.80095746 52.28652095 -13.90239874 44.14329248 -14 36 C-14.73637695 36.74161377 -15.47275391 37.48322754 -16.23144531 38.24731445 C-18.9722083 41.00621975 -21.71631398 43.76177972 -24.46142578 46.51635742 C-25.64755781 47.70750857 -26.83278951 48.89955697 -28.01708984 50.0925293 C-29.72255572 51.81016685 -31.43126622 53.52451885 -33.140625 55.23828125 C-33.66682434 55.76964188 -34.19302368 56.3010025 -34.73516846 56.84846497 C-41.74635043 63.8607056 -41.74635043 63.8607056 -46.9375 64.4375 C-51.02931474 64.28482035 -53.15600195 63.01636157 -56 60 C-57.25497957 56.2350613 -57.52064444 53.96991382 -57 50 C-55.74786377 48.21029663 -55.74786377 48.21029663 -54.05175781 46.35302734 C-53.41355103 45.65336853 -52.77534424 44.95370972 -52.11779785 44.23284912 C-48.3625842 40.27363012 -44.53505478 36.39281394 -40.671875 32.5390625 C-39.36564178 31.2313942 -39.36564178 31.2313942 -38.03302002 29.89730835 C-36.20553317 28.069145 -34.37679894 26.24222781 -32.546875 24.41650391 C-29.74102601 21.61604325 -26.94059464 18.81024391 -24.140625 16.00390625 C-22.35969583 14.22363732 -20.57845679 12.44367832 -18.796875 10.6640625 C-17.5406131 9.40476425 -17.5406131 9.40476425 -16.25897217 8.12002563 C-15.48096252 7.34516815 -14.70295288 6.57031067 -13.90136719 5.77197266 C-13.21854675 5.08994781 -12.53572632 4.40792297 -11.83221436 3.70523071 C-7.8455559 -0.00512796 -5.3703195 -0.54613419 0 0 Z " fill="#FEFDFB" transform="translate(259,191)"/>
<path d="M0 0 C0.75943061 -0.00382555 1.51886122 -0.00765109 2.30130488 -0.01159257 C4.84771448 -0.02191683 7.39389837 -0.01793154 9.94032288 -0.01396179 C11.76529143 -0.01830858 13.59025816 -0.02349161 15.41522217 -0.02944946 C20.37386109 -0.0428541 25.33242386 -0.04341652 30.29107738 -0.04088616 C34.42888459 -0.03981748 38.56667633 -0.04469718 42.70448023 -0.04949158 C52.46507233 -0.06059177 62.22562595 -0.06102125 71.98622131 -0.05497742 C82.05983203 -0.04893574 92.13330315 -0.06125242 102.20689005 -0.08254749 C110.85242159 -0.10015256 119.49790866 -0.10616658 128.14345747 -0.10290974 C133.30851604 -0.10109505 138.47347502 -0.10375168 143.63851738 -0.11762428 C148.49519034 -0.13018026 153.35164536 -0.12827968 158.2083149 -0.11521339 C159.99131976 -0.11284322 161.77433986 -0.11559805 163.55732727 -0.12383652 C165.99037675 -0.13426851 168.42269011 -0.12623228 170.85571289 -0.11352539 C171.91534844 -0.12458682 171.91534844 -0.12458682 172.99639076 -0.13587171 C177.32992437 -0.08822173 180.02266362 0.64701568 183.49134827 3.26069641 C186.05767343 6.6824633 185.85569877 10.10710062 185.49134827 14.26069641 C184.27167511 17.00496102 183.33757688 18.68259448 180.851264 20.38112164 C177.57367179 21.60272773 174.43255635 21.53979126 170.98269653 21.52139282 C169.84355062 21.52713114 169.84355062 21.52713114 168.68139166 21.53298539 C166.13498205 21.54330965 163.58879816 21.53932436 161.04237366 21.53535461 C159.2174051 21.5397014 157.39243837 21.54488444 155.56747437 21.55084229 C150.60883544 21.56424692 145.65027267 21.56480934 140.69161916 21.56227899 C136.55381195 21.5612103 132.41602021 21.56609001 128.2782163 21.57088441 C118.5176242 21.58198459 108.75707058 21.58241408 98.99647522 21.57637024 C88.9228645 21.57032856 78.84939339 21.58264524 68.77580649 21.60394031 C60.13027494 21.62154539 51.48478788 21.62755941 42.83923906 21.62430257 C37.67418049 21.62248787 32.50922152 21.6251445 27.34417915 21.63901711 C22.48750619 21.65157308 17.63105117 21.6496725 12.77438164 21.63660622 C10.99137677 21.63423604 9.20835667 21.63699087 7.42536926 21.64522934 C4.99231979 21.65566133 2.56000642 21.6476251 0.12698364 21.63491821 C-0.9326519 21.64597964 -0.9326519 21.64597964 -2.01369423 21.65726453 C-6.34722783 21.60961455 -9.03996709 20.87437714 -12.50865173 18.26069641 C-15.0749769 14.83892952 -14.87300224 11.4142922 -14.50865173 7.26069641 C-13.28897858 4.51643181 -12.35488035 2.83879835 -9.86856747 1.14027119 C-6.59097526 -0.0813349 -3.44985981 -0.01839844 0 0 Z " fill="#80CDF6" transform="translate(170.50865173339844,388.7393035888672)"/>
<path d="M0 0 C1.21969986 -0.00845947 2.43939972 -0.01691895 3.69606018 -0.02563477 C5.03952161 -0.01980244 6.38298171 -0.01365797 7.72644043 -0.00723267 C9.14762271 -0.01129976 10.56880183 -0.01664242 11.98997498 -0.02316284 C15.84327655 -0.036826 19.69633684 -0.03154202 23.54964256 -0.02202559 C27.58453389 -0.01442378 31.61940473 -0.02147605 35.65429688 -0.02618408 C42.42984725 -0.03164012 49.20529949 -0.02445403 55.98083496 -0.01016235 C63.81131305 0.00616391 71.6415568 0.00087529 79.47202921 -0.01564157 C86.19828753 -0.02926079 92.92447535 -0.03117398 99.65074301 -0.02332556 C103.66666091 -0.01865143 107.68246871 -0.01801702 111.69837952 -0.02793503 C115.47414162 -0.03660879 119.24960195 -0.03057553 123.0253315 -0.01325226 C124.41002972 -0.00928957 125.79475339 -0.01041777 127.17944145 -0.01704025 C129.07135987 -0.02525358 130.96333387 -0.01312159 132.85522461 0 C133.91340141 0.00113108 134.97157822 0.00226215 136.06182098 0.00342751 C140.1752733 0.54531085 142.7916881 2.28419652 145.7401123 5.13095093 C147.45629556 8.38266657 147.30923319 10.75555255 146.9276123 14.38095093 C145.27621925 17.91965033 144.21156001 19.19165246 140.9276123 21.38095093 C138.26385784 21.64101315 138.26385784 21.64101315 134.98857117 21.65510559 C133.12744942 21.67006828 133.12744942 21.67006828 131.22872925 21.68533325 C129.85125745 21.68622907 128.47378549 21.68689263 127.09631348 21.68734741 C125.64749219 21.69496789 124.19867495 21.70339519 122.74986267 21.71257019 C118.81173875 21.73453502 114.87369248 21.74331689 110.93551421 21.74839664 C108.47489165 21.7520383 106.01428949 21.7582774 103.5536747 21.76539803 C94.96859467 21.78990078 86.38357512 21.8029459 77.79846191 21.80648804 C69.79754726 21.81012252 61.79701641 21.84000928 53.79621905 21.88189262 C46.9264692 21.91659349 40.05684653 21.93203645 33.18700963 21.93273407 C29.08427713 21.93352706 24.98193535 21.94227479 20.87929344 21.97073174 C17.0189041 21.99690883 13.15922947 21.99912024 9.29879189 21.9830761 C7.88385586 21.98126119 6.46887879 21.98795636 5.05403137 22.00389481 C-6.95989898 22.13095519 -6.95989898 22.13095519 -10.8946991 19.05833435 C-13.64398138 15.67819872 -14.14861797 13.72607677 -14.0723877 9.38095093 C-11.59207532 2.21560407 -7.36341802 0.0078707 0 0 Z " fill="#80CDF6" transform="translate(100.0723876953125,439.6190490722656)"/>
<path d="M0 0 C1.82119606 -0.01073296 1.82119606 -0.01073296 3.67918396 -0.02168274 C5.03195165 -0.02452314 6.38471961 -0.02723485 7.73748779 -0.02983093 C9.15660265 -0.03609476 10.57571586 -0.04274148 11.99482727 -0.04974365 C15.85655308 -0.06716208 19.71826649 -0.07770794 23.58002186 -0.08594918 C25.99255654 -0.09109812 28.40508736 -0.09717394 30.81761932 -0.10346031 C38.3653406 -0.12251573 45.91305207 -0.13674547 53.46079278 -0.14507228 C62.17418547 -0.15484357 70.88732404 -0.18115861 79.60062718 -0.22157317 C86.33446571 -0.25173474 93.06823141 -0.26654123 99.80213618 -0.26985329 C103.82435417 -0.27220397 107.84630081 -0.28116612 111.86844635 -0.30631447 C115.65404196 -0.32960082 119.43918767 -0.33382643 123.22483635 -0.32355309 C124.61235742 -0.32305773 125.99990068 -0.32937837 127.3873539 -0.34310913 C140.45988488 -0.46521423 140.45988488 -0.46521423 145.29510498 4.14717102 C147.19434124 7.20246413 147.29510498 9.03243884 147.29510498 12.64717102 C146.2898126 16.16569436 145.34066378 17.87042771 142.459795 20.11501884 C137.46296993 22.49756961 131.62380001 21.82733824 126.19915771 21.77827454 C124.7581189 21.78341655 123.31708637 21.79069995 121.87606812 21.79995728 C117.97308181 21.8184425 114.07078024 21.80555216 110.1678226 21.78586698 C106.07955069 21.76945822 101.99132139 21.77829631 97.9030304 21.78338623 C91.03922612 21.78790421 84.17569463 21.77205461 77.31195068 21.74409485 C69.37970086 21.71203137 61.44794262 21.71206449 53.51565784 21.72930962 C45.87924763 21.74517898 38.24301742 21.73843939 30.60661507 21.7213726 C27.35908267 21.71450516 24.1116947 21.71553132 20.86416435 21.72291756 C17.03985663 21.73058483 13.21610775 21.71844061 9.39189529 21.69106865 C7.98946987 21.68418873 6.58699221 21.68408271 5.18456841 21.69128418 C3.26860399 21.69998828 1.3525738 21.68157312 -0.56330872 21.66183472 C-2.17074872 21.65762434 -2.17074872 21.65762434 -3.81066227 21.6533289 C-7.41435631 21.02309689 -9.09241649 19.65674368 -11.70489502 17.14717102 C-13.44121138 13.67453829 -13.30679904 9.93524089 -12.70489502 6.14717102 C-8.72675388 1.12215064 -6.20744716 0.02503428 0 0 Z " fill="#7FCDF6" transform="translate(278.70489501953125,439.8528289794922)"/>
<path d="M0 0 C1.26496307 -0.0159874 2.52992615 -0.03197479 3.83322144 -0.04844666 C5.21579587 -0.05482339 6.59837515 -0.06021612 7.98095703 -0.06469727 C9.39958796 -0.07366501 10.81821793 -0.08278689 12.23684692 -0.09205627 C15.21098121 -0.10854505 18.18500295 -0.1162461 21.15917969 -0.11914062 C24.96485965 -0.12452334 28.76947757 -0.162197 32.57485771 -0.20788479 C35.50546095 -0.23767188 38.435809 -0.24486452 41.36655045 -0.24586678 C42.76917509 -0.25006621 44.17180068 -0.26248972 45.57427597 -0.28338432 C47.53891856 -0.31032335 49.50394518 -0.30236217 51.46875 -0.29296875 C52.58555145 -0.2980394 53.70235291 -0.30311005 54.85299683 -0.30833435 C58.84990047 0.50774184 60.33387564 2.17459482 62.86376953 5.30639648 C64.07420849 9.46728042 64.14788855 11.55348109 62.61376953 15.61889648 C60.86376953 18.30639648 60.86376953 18.30639648 57.86376953 20.30639648 C55.10696411 20.58055115 55.10696411 20.58055115 51.72753906 20.61279297 C50.46257599 20.62878036 49.19761292 20.64476776 47.89431763 20.66123962 C46.51174319 20.66761635 45.12916391 20.67300909 43.74658203 20.67749023 C42.3279511 20.68645798 40.90932113 20.69557986 39.49069214 20.70484924 C36.51655785 20.72133801 33.54253611 20.72903906 30.56835938 20.73193359 C26.76267941 20.73731631 22.95806149 20.77498997 19.15268135 20.82067776 C16.22207811 20.85046485 13.29173007 20.85765749 10.36098862 20.85865974 C8.95836398 20.86285917 7.55573838 20.87528268 6.15326309 20.89617729 C4.1886205 20.92311632 2.22359388 20.91515514 0.25878906 20.90576172 C-0.85801239 20.91083237 -1.97481384 20.91590302 -3.12545776 20.92112732 C-7.12236141 20.10505113 -8.60633658 18.43819815 -11.13623047 15.30639648 C-12.34666943 11.14551255 -12.42034949 9.05931188 -10.88623047 4.99389648 C-7.84007054 0.31586517 -5.28171386 0.05039084 0 0 Z " fill="#7FCDF6" transform="translate(230.13623046875,491.693603515625)"/>
<path d="M0 0 C3.41421647 2.36904816 4.64346607 3.97496494 6 7.875 C6 11.87967782 5.32435458 14.76353545 3 18 C-0.39358495 20.64764091 -4.09642206 22.64145523 -7.875 24.6875 C-10.04962053 25.90209069 -12.22409686 27.11693958 -14.3984375 28.33203125 C-15.49897461 28.93869629 -16.59951172 29.54536133 -17.73339844 30.17041016 C-20.85119068 31.91665343 -23.91785438 33.72682449 -26.9765625 35.57421875 C-27.90871582 36.13085205 -28.84086914 36.68748535 -29.80126953 37.26098633 C-31.55646078 38.31070311 -33.30526191 39.37120502 -35.04638672 40.4440918 C-40.33816676 43.55291924 -43.84844129 44.7497003 -50 44 C-52.8100346 42.20636089 -54.50940468 40.98119065 -56 38 C-56.2734375 36.01171875 -56.2734375 36.01171875 -56.375 33.6875 C-56.44847656 32.54861328 -56.44847656 32.54861328 -56.5234375 31.38671875 C-55.53806215 26.89370129 -52.28686039 24.83320854 -48.61279297 22.4543457 C-45.68274287 20.69470487 -42.7247859 18.99538946 -39.75 17.3125 C-37.58535406 16.07784526 -35.42129472 14.84216153 -33.2578125 13.60546875 C-32.1946582 12.99880371 -31.13150391 12.39213867 -30.03613281 11.76708984 C-27.31695714 10.18447538 -24.64823017 8.54899314 -21.9921875 6.86328125 C-7.24958888 -2.4454701 -7.24958888 -2.4454701 0 0 Z " fill="#FDD83A" transform="translate(474,123)"/>
<path d="M0 0 C4.45069699 1.8740161 8.46543823 4.33150476 12.5625 6.875 C13.7072163 7.56554845 14.85314462 8.25409152 16.00024414 8.94067383 C18.27904838 10.30781137 20.54951755 11.68629754 22.81738281 13.07177734 C25.6453603 14.78513775 28.49264272 16.44844313 31.3671875 18.08203125 C32.54172485 18.75226318 32.54172485 18.75226318 33.73999023 19.43603516 C35.16171286 20.24569521 36.58557363 21.05161716 38.01196289 21.85302734 C41.40979063 23.82335494 44.10576415 25.49770782 46 29 C46.90574338 33.56135631 46.59262126 37.05180598 44.125 41 C41.02140434 43.92103121 38.72825693 44.48554714 34.43945312 44.41992188 C29.20164576 43.51829771 24.7619882 40.42710373 20.25 37.75 C19.16122559 37.11827881 18.07245117 36.48655762 16.95068359 35.83569336 C14.71571908 34.53508673 12.48507167 33.22703347 10.25878906 31.91162109 C7.20028169 30.11748619 4.11891416 28.37386811 1.0234375 26.64453125 C-0.77677249 25.61846866 -2.57629165 24.59119273 -4.375 23.5625 C-5.20612305 23.10391602 -6.03724609 22.64533203 -6.89355469 22.17285156 C-12.1150537 19.11652534 -14.31485508 16.8706065 -16 11 C-16 7.08281834 -15.25287468 5.3752334 -13.0625 2.125 C-8.67018411 -0.92272939 -5.21411596 -0.89791106 0 0 Z " fill="#FDD83A" transform="translate(48,123)"/>
<path d="M0 0 C2.81715059 2.63539894 3.73325634 5.17667422 4 9 C2.76576982 14.47064187 0.67672748 18.68752711 -2.25 23.4375 C-3.14444776 24.91723284 -4.03759624 26.39775155 -4.9296875 27.87890625 C-5.41663086 28.68473145 -5.90357422 29.49055664 -6.40527344 30.32080078 C-8.18314454 33.30768956 -9.91069332 36.32047924 -11.6328125 39.33984375 C-12.2525293 40.42144775 -12.87224609 41.50305176 -13.51074219 42.61743164 C-14.73862237 44.76300592 -15.96078192 46.91186575 -17.17675781 49.06420898 C-17.74491211 50.05106689 -18.31306641 51.0379248 -18.8984375 52.0546875 C-19.65133057 53.37702393 -19.65133057 53.37702393 -20.41943359 54.72607422 C-22.52131052 57.74999786 -24.52145127 59.70640625 -28.18359375 60.43359375 C-32.27354511 60.44068205 -34.44619294 60.34612941 -38 58.125 C-40.92103121 55.02140434 -41.48554714 52.72825693 -41.41992188 48.43945312 C-40.51829771 43.20164576 -37.42710373 38.7619882 -34.75 34.25 C-34.11827881 33.16122559 -33.48655762 32.07245117 -32.83569336 30.95068359 C-31.53508673 28.71571908 -30.22703347 26.48507167 -28.91162109 24.25878906 C-27.11748619 21.20028169 -25.37386811 18.11891416 -23.64453125 15.0234375 C-22.61846866 13.22322751 -21.59119273 11.42370835 -20.5625 9.625 C-20.10391602 8.79387695 -19.64533203 7.96275391 -19.17285156 7.10644531 C-14.62380462 -0.66525259 -8.69548925 -4.00424335 0 0 Z " fill="#FDD83A" transform="translate(386,34)"/>
<path d="M0 0 C4.26288898 2.7866356 6.27956267 7.49598876 8.65869141 11.86816406 C10.62052345 15.42260895 12.66949089 18.92547272 14.70924377 22.43560791 C17.62482077 27.45451559 20.52292666 32.48318172 23.40234375 37.52294922 C24.36436427 39.19448913 25.33734447 40.85989732 26.33203125 42.51220703 C29.21875946 47.32898528 29.7192549 49.79882143 29.0078125 55.3125 C27.21417339 58.1225346 25.98900315 59.82190468 23.0078125 61.3125 C21.01953125 61.5859375 21.01953125 61.5859375 18.6953125 61.6875 C17.93605469 61.73648438 17.17679688 61.78546875 16.39453125 61.8359375 C11.90151379 60.85056215 9.84102104 57.59936039 7.4621582 53.92529297 C5.70253471 50.99527175 4.00375568 48.03693006 2.3203125 45.0625 C1.08394008 42.90329829 -0.15304321 40.74444626 -1.390625 38.5859375 C-1.99745117 37.52342773 -2.60427734 36.46091797 -3.22949219 35.36621094 C-4.81957169 32.61154134 -6.44281177 29.88255713 -8.09375 27.1640625 C-8.55563721 26.3999707 -9.01752441 25.63587891 -9.4934082 24.84863281 C-10.3417362 23.45049477 -11.19662705 22.05630878 -12.05932617 20.66699219 C-14.33632845 16.88450564 -15.71120662 13.73950987 -15.9921875 9.3125 C-14.74854625 4.72657289 -13.82360058 2.85047317 -9.8046875 0.25 C-6.24008773 -0.62654093 -3.53824675 -1.18390005 0 0 Z " fill="#FDD83A" transform="translate(137.9921875,32.6875)"/>
<path d="M0 0 C1.68734001 -0.02409439 1.68734001 -0.02409439 3.4087677 -0.04867554 C8.55553395 -0.09304366 13.70221105 -0.13462993 18.84912109 -0.15722656 C21.56626083 -0.17056102 24.28264865 -0.19840273 26.99951172 -0.23925781 C30.91070535 -0.29807059 34.82153356 -0.31588854 38.7331543 -0.33056641 C39.94787918 -0.35323578 41.16260406 -0.37590515 42.41413879 -0.39926147 C51.79504114 -0.3756921 51.79504114 -0.3756921 54.88378906 2.56933594 C56.75444286 5.39623029 57.29738265 6.83225621 57.24487305 10.19287109 C57.26420898 11.43037109 57.26420898 11.43037109 57.28393555 12.69287109 C56.5551615 15.43649105 55.55710486 17.15944894 53.49716187 19.12322998 C49.15469989 21.59747679 43.69020339 20.89767286 38.83862305 20.85693359 C37.59238159 20.86171722 36.34614014 20.86650085 35.06213379 20.87142944 C31.75596323 20.87569891 28.45097243 20.85561568 25.1449585 20.82763672 C23.12140427 20.81787848 21.09893407 20.82760163 19.07543945 20.84472656 C15.18348952 20.87561883 11.2931399 20.87187289 7.40112305 20.85693359 C6.19580933 20.86705475 4.99049561 20.8771759 3.74865723 20.88760376 C-5.54220537 20.7574039 -5.54220537 20.7574039 -8.61645508 17.77636719 C-11.2415851 13.93097324 -11.83144165 11.88654392 -11.38012695 7.19287109 C-8.09065597 1.38147235 -6.5148526 0.0843678 0 0 Z " fill="#FDD83A" transform="translate(455.380126953125,245.80712890625)"/>
<path d="M0 0 C1.24624146 -0.00478363 2.49248291 -0.00956726 3.77648926 -0.01449585 C7.08265982 -0.01876532 10.38765061 0.00131791 13.69366455 0.02929688 C15.71721878 0.03905512 17.73968898 0.02933197 19.76318359 0.01220703 C23.65513353 -0.01868523 27.54548315 -0.0149393 31.4375 0 C32.64281372 -0.01012115 33.84812744 -0.02024231 35.08996582 -0.03067017 C44.38082841 0.0995297 44.38082841 0.0995297 47.45507812 3.08056641 C50.08020815 6.92596035 50.6700647 8.97038967 50.21875 13.6640625 C47.06085526 19.24300987 47.06085526 19.24300987 44.21875 20.6640625 C42.42799145 20.78030915 40.63300024 20.83369628 38.83862305 20.85693359 C37.15128304 20.88102798 37.15128304 20.88102798 35.42985535 20.90560913 C30.28308909 20.94997726 25.13641199 20.99156352 19.98950195 21.01416016 C17.27236221 21.02749461 14.5559744 21.05533632 11.83911133 21.09619141 C7.9279177 21.15500418 4.01708948 21.17282213 0.10546875 21.1875 C-1.10925613 21.21016937 -2.32398102 21.23283875 -3.57551575 21.25619507 C-12.9564181 21.23262569 -12.9564181 21.23262569 -16.04516602 18.28759766 C-17.91581982 15.4607033 -18.45875961 14.02467738 -18.40625 10.6640625 C-18.41914063 9.8390625 -18.43203125 9.0140625 -18.4453125 8.1640625 C-17.71653845 5.42044255 -16.71848181 3.69748466 -14.65853882 1.73370361 C-10.31607684 -0.74054319 -4.85158035 -0.04073927 0 0 Z " fill="#FDD73A" transform="translate(17.78125,245.3359375)"/>
<path d="M0 0 C0.825 -0.01289063 1.65 -0.02578125 2.5 -0.0390625 C5.24361995 0.68971155 6.96657784 1.68776819 8.93035889 3.74771118 C11.40460569 8.09017316 10.70480177 13.55466965 10.6640625 18.40625 C10.66884613 19.65249146 10.67362976 20.89873291 10.67855835 22.18273926 C10.68282782 25.48890982 10.66274459 28.79390061 10.63476562 32.09991455 C10.62500738 34.12346878 10.63473053 36.14593898 10.65185547 38.16943359 C10.68274773 42.06138353 10.6790018 45.95173315 10.6640625 49.84375 C10.67418365 51.04906372 10.68430481 52.25437744 10.69473267 53.49621582 C10.5645328 62.78707841 10.5645328 62.78707841 7.58349609 65.86132812 C3.73810215 68.48645815 1.69367283 69.0763147 -3 68.625 C-8.57894737 65.46710526 -8.57894737 65.46710526 -10 62.625 C-10.11624665 60.83424145 -10.16963378 59.03925024 -10.19287109 57.24487305 C-10.20893402 56.11997971 -10.22499695 54.99508636 -10.24154663 53.83610535 C-10.28591476 48.68933909 -10.32750102 43.54266199 -10.35009766 38.39575195 C-10.36343211 35.67861221 -10.39127382 32.9622244 -10.43212891 30.24536133 C-10.49094168 26.3341677 -10.50875963 22.42333948 -10.5234375 18.51171875 C-10.54610687 17.29699387 -10.56877625 16.08226898 -10.59213257 14.83073425 C-10.56856319 5.4498319 -10.56856319 5.4498319 -7.62353516 2.36108398 C-4.7966408 0.49043018 -3.36061488 -0.05250961 0 0 Z " fill="#FDD83A" transform="translate(256,-0.625)"/>
</svg>
